<svg xmlns="http://www.w3.org/2000/svg" viewBox="0 0 200 200">
  <path fill="none" stroke="black" stroke-width="3" d="
    M 40 140
    C 40 120, 60 100, 100 100
    C 140 100, 160 120, 160 140
    L 160 160
    L 40 160
    Z
    M 100 100
    C 90 90, 85 70, 90 50
    C 95 30, 110 20, 125 25
    C 140 30, 150 45, 145 60
    L 140 100
    M 130 60
    L 155 35
    M 95 70
    C 85 60, 75 55, 65 60
    C 55 65, 50 80, 55 90
    C 60 100, 75 105, 85 95
    M 50 160
    L 40 180
    M 150 160
    L 160 180
  "/>
</svg>
